<?xml version="1.0" standalone="no"?>
<!DOCTYPE svg PUBLIC "-//W3C//DTD SVG 20010904//EN"
 "http://www.w3.org/TR/2001/REC-SVG-20010904/DTD/svg10.dtd">
<svg version="1.0" xmlns="http://www.w3.org/2000/svg"
 width="500.000000pt" height="500.000000pt" viewBox="0 0 500.000000 500.000000"
 preserveAspectRatio="xMidYMid meet">

<g transform="translate(0.000000,500.000000) scale(0.100000,-0.100000)"
fill="#000000" stroke="none">
<path d="M2490 2881 l0 -328 -46 -7 c-26 -3 -162 -6 -304 -6 -236 0 -258 -1
-273 -18 -34 -38 -14 -153 49 -282 55 -111 179 -233 294 -288 112 -53 174 -67
295 -66 183 0 320 58 455 194 94 93 134 160 171 280 30 95 32 252 5 349 -56
208 -217 383 -411 452 -51 18 -192 49 -222 49 -10 0 -13 -72 -13 -329z"/>
</g>
</svg>
